<?xml version="1.0" encoding="utf-8"?>
<svg viewBox="0 0 200 200" xmlns="http://www.w3.org/2000/svg" xmlns:xlink="http://www.w3.org/1999/xlink">
  <defs>
    <linearGradient id="gradient-2">
      <stop offset="0" style="stop-color: rgb(255, 226, 0);"/>
      <stop offset="1" style="stop-color: rgb(255, 241, 138);"/>
    </linearGradient>
    <radialGradient gradientUnits="userSpaceOnUse" cx="100" cy="100" r="30" id="gradient-3-0" xlink:href="#gradient-3"/>
    <linearGradient id="gradient-3">
      <stop offset="0" style="stop-color: rgb(193, 93, 73);"/>
      <stop offset="1" style="stop-color: rgb(177, 38, 38);"/>
    </linearGradient>
    <filter id="drop-shadow-filter-0" color-interpolation-filters="sRGB" x="-50%" y="-50%" width="200%" height="200%">
      <feGaussianBlur in="SourceAlpha" stdDeviation="3"/>
      <feOffset dx="0" dy="0"/>
      <feComponentTransfer result="offsetblur">
        <feFuncA id="spread-ctrl" type="linear" slope="1"/>
      </feComponentTransfer>
      <feFlood flood-color="rgba(0,0,0,0.3)"/>
      <feComposite in2="offsetblur" operator="in"/>
      <feMerge>
        <feMergeNode/>
        <feMergeNode in="SourceGraphic"/>
      </feMerge>
    </filter>
  </defs>
  <ellipse cx="50" cy="100" rx="30" ry="15" fill="#eddb4e" classname="" transform="matrix(1, 0, 0, 1, 0, 7.105427357601002e-15)"/>
  <ellipse cx="50" cy="100" rx="30" ry="15" fill="#eddb4e" classname="" transform="matrix(0.8090169943749475, 0.5877852522924731, -0.5877852522924731, 0.8090169943749475, 77.87682579175258, -39.68022466674205)" style="fill: url('#gradient-2');"/>
  <ellipse cx="50" cy="100" rx="30" ry="15" fill="#eddb4e" classname="" transform="matrix(0.3090169943749474, 0.9510565162951535, -0.9510565162951535, 0.3090169943749474, 164.2039521920206, -26.007351067010084)" style="fill: url('#gradient-2');"/>
  <ellipse cx="50" cy="100" rx="30" ry="15" classname="" transform="matrix(-0.3090169943749474, 0.9510565162951535, -0.9510565162951535, -0.3090169943749474, 226.00735106701006, 35.7960478079794)" style="fill: url('#gradient-2');"/>
  <ellipse cx="50" cy="100" rx="30" ry="15" fill="#eddb4e" classname="" transform="matrix(-0.8090169943749475, 0.5877852522924731, -0.5877852522924731, -0.8090169943749475, 239.68022466674205, 122.12317420824743)" style="fill: url('#gradient-2');"/>
  <ellipse cx="50" cy="100" rx="30" ry="15" fill="#eddb4e" classname="" transform="matrix(-1, 0, 0, -1, 200, 200)" style="fill: url('#gradient-2');"/>
  <ellipse cx="50" cy="100" rx="30" ry="15" fill="#eddb4e" classname="" transform="matrix(-0.8090169943749475, -0.5877852522924731, 0.5877852522924731, -0.8090169943749475, 122.12317420824745, 239.68022466674205)" style="fill: url('#gradient-2');"/>
  <ellipse cx="50" cy="100" rx="30" ry="15" fill="#eddb4e" classname="" transform="matrix(-0.3090169943749474, -0.9510565162951535, 0.9510565162951535, -0.3090169943749474, 35.796047807979406, 226.00735106701006)" style="fill: url('#gradient-2');"/>
  <ellipse cx="50" cy="100" rx="30" ry="15" fill="#eddb4e" classname="" transform="matrix(0.3090169943749474, -0.9510565162951535, 0.9510565162951535, 0.3090169943749474, -26.00735106701009, 164.2039521920206)" style="fill: url('#gradient-2');"/>
  <ellipse cx="50" cy="100" rx="30" ry="15" fill="#eddb4e" classname="" transform="matrix(0.8090169943749475, -0.5877852522924731, 0.5877852522924731, 0.8090169943749475, -39.68022466674205, 77.87682579175257)" style="fill: url('#gradient-2');"/>
  <ellipse cx="50" cy="100" rx="30" ry="15" fill="#eddb4e" classname="" transform="matrix(1, 0, 0, 1, 0, 7.105427357601002e-15)" style="fill: url('#gradient-2');"/>
  <circle cx="100" cy="100" r="30" style="fill: url('#gradient-3-0'); fill-rule: nonzero; filter: url('#drop-shadow-filter-0');" transform="matrix(1, 0, 0, 1, 0, 7.105427357601002e-15)"/>
</svg>